<svg xmlns="http://www.w3.org/2000/svg" xmlns:xlink="http://www.w3.org/1999/xlink" width="407.064" height="280.129" viewBox="0 0 407.064 280.129">
  <defs>
    <linearGradient id="linear-gradient" x1="0.5" y1="1.001" x2="0.5" gradientUnits="objectBoundingBox">
      <stop offset="0" stop-color="gray" stop-opacity="0.251"/>
      <stop offset="0.54" stop-color="gray" stop-opacity="0.122"/>
      <stop offset="1" stop-color="gray" stop-opacity="0.102"/>
    </linearGradient>
    <linearGradient id="linear-gradient-2" x1="0.141" y1="0.451" x2="1.272" y2="0.451" xlink:href="#linear-gradient"/>
  </defs>
  <g id="Group_13" data-name="Group 13" transform="translate(0.002 -0.03)">
    <path id="Path_48" data-name="Path 48" d="M745.194,280.347a2.7,2.7,0,0,0,.49-1.5c0-3.259-6.64-5.9-14.831-5.9s-14.831,2.637-14.831,5.9a2.781,2.781,0,0,0,.611,1.672c-9.12,1.018-15.263,2.927-15.263,5.117,0,3.256,13.58,5.9,30.376,5.9s30.376-2.641,30.376-5.9C762.1,283.331,755.2,281.312,745.194,280.347Z" transform="translate(-461.614 -196.133)" fill="#6c63ff" opacity="0.1"/>
    <g id="Group_8" data-name="Group 8" transform="translate(300.472 20.894)" opacity="0.2">
      <path id="Path_49" data-name="Path 49" d="M940.262,752.1a17.106,17.106,0,0,0-.154,2.809q9.342.15,18.765.629c.043-.243.086-.5.122-.751a14.92,14.92,0,0,0-.876-7.762c-1.294-3.156-3.706-5.411-6.726-5.843s-5.964,1.051-8.091,3.7a14.888,14.888,0,0,0-3.041,7.219Z" transform="translate(-915.504 -517.884)" fill="#3f3d56"/>
      <ellipse id="Ellipse_9" data-name="Ellipse 9" cx="12.386" cy="9.463" rx="12.386" ry="9.463" transform="translate(25.168 231.502) rotate(-81.82)" fill="#3f3d56"/>
      <ellipse id="Ellipse_10" data-name="Ellipse 10" cx="12.386" cy="9.463" rx="12.386" ry="9.463" transform="translate(27.32 216.52) rotate(-81.82)" fill="#3f3d56"/>
      <ellipse id="Ellipse_11" data-name="Ellipse 11" cx="12.386" cy="9.463" rx="12.386" ry="9.463" transform="translate(29.473 201.534) rotate(-81.82)" fill="#3f3d56"/>
      <ellipse id="Ellipse_12" data-name="Ellipse 12" cx="12.386" cy="9.463" rx="12.386" ry="9.463" transform="translate(31.626 186.548) rotate(-81.82)" fill="#3f3d56"/>
      <path id="Path_50" data-name="Path 50" d="M963.813,194.586a45.984,45.984,0,0,0,4.228-4.646l-24.029-7.565L970.6,186.4a45.414,45.414,0,0,0,5.964-35.436L938.2,164.353l36.4-19.466a45.325,45.325,0,1,0-81.308,39.564A45.384,45.384,0,0,0,887,191.9l29.561,21.185-32.417-16.324a45.339,45.339,0,0,0,1.179,43.163,45.321,45.321,0,1,0,70.519,10.135,45.328,45.328,0,0,0,7.969-55.47Z" transform="translate(-871.276 -116.464)" fill="#6c63ff"/>
      <path id="Path_51" data-name="Path 51" d="M879.7,379.627a45.11,45.11,0,0,0,5.614,29.115,45.321,45.321,0,1,0,70.519,10.135C962.945,412.108,880.426,374.591,879.7,379.627Z" transform="translate(-871.27 -285.283)" opacity="0.1"/>
    </g>
    <g id="Group_9" data-name="Group 9" transform="translate(-0.002 35.327)" opacity="0.2">
      <path id="Path_52" data-name="Path 52" d="M196.539,712.8a14.519,14.519,0,0,0,.625,2.373q7.615-2.451,15.388-4.646c-.029-.214-.061-.436-.1-.658a13.151,13.151,0,0,0-2.78-6.2c-1.89-2.262-4.449-3.47-7.015-2.995s-4.56,2.5-5.578,5.3A13.333,13.333,0,0,0,196.539,712.8Z" transform="translate(-137.051 -506.265)" fill="#3f3d56"/>
      <ellipse id="Ellipse_13" data-name="Ellipse 13" cx="8.091" cy="10.825" rx="8.091" ry="10.825" transform="translate(55.532 182.606) rotate(-8.99)" fill="#3f3d56"/>
      <ellipse id="Ellipse_14" data-name="Ellipse 14" cx="8.114" cy="10.855" rx="8.114" ry="10.855" transform="matrix(0.987, -0.16, 0.16, 0.987, 54.268, 169.835)" fill="#3f3d56"/>
      <ellipse id="Ellipse_15" data-name="Ellipse 15" cx="8.091" cy="10.825" rx="8.091" ry="10.825" transform="translate(51.027 156.537) rotate(-8.99)" fill="#3f3d56"/>
      <ellipse id="Ellipse_16" data-name="Ellipse 16" cx="8.091" cy="10.825" rx="8.091" ry="10.825" transform="translate(48.779 143.501) rotate(-8.99)" fill="#3f3d56"/>
      <path id="Path_53" data-name="Path 53" d="M103.307,215.1a40.381,40.381,0,0,0,2.191-5l-21.513.336,22.643-3.992a40.465,40.465,0,0,0,.672-16.961,39.986,39.986,0,0,0-5.282-14.091l-27.557,21.7L98.8,170.883a38.088,38.088,0,0,0-36.358-13.4c-21.067,3.867-35.1,24.48-31.38,46.029a39.568,39.568,0,0,0,12.322,22.625,40.13,40.13,0,0,0-3.12,7.916L69.9,243.49l-30.666-4.614a40.461,40.461,0,0,0,.15,12.887,39.568,39.568,0,0,0,12.322,22.625,40.361,40.361,0,0,0-3.992,25.627c3.72,21.553,23.8,35.88,44.853,32s35.1-24.487,31.38-46.04a39.578,39.578,0,0,0-12.322-22.621,40.382,40.382,0,0,0,3.992-25.63A39.578,39.578,0,0,0,103.307,215.1Z" transform="translate(-30.468 -156.85)" fill="#6c63ff"/>
      <path id="Path_54" data-name="Path 54" d="M55.44,420.271A39.568,39.568,0,0,0,67.762,442.9a40.361,40.361,0,0,0-3.992,25.627c3.72,21.553,23.8,35.88,44.853,32s35.1-24.487,31.38-46.04a39.578,39.578,0,0,0-12.322-22.621C131.645,424.281,54.682,415.894,55.44,420.271Z" transform="translate(-46.512 -325.358)" opacity="0.1"/>
    </g>
    <path id="Path_55" data-name="Path 55" d="M144.32,651.45c0,18.694,11.725,33.818,26.216,33.818" transform="translate(-103.635 -439.369)" fill="#f90"/>
    <path id="Path_56" data-name="Path 56" d="M217.68,684.586c0-18.9,13.087-34.2,29.261-34.2" transform="translate(-150.779 -438.688)" fill="#fee1b6"/>
    <path id="Path_57" data-name="Path 57" d="M170.9,656.19c0,17.758,7.476,32.124,16.718,32.124" transform="translate(-120.716 -442.415)" fill="#fee1b6"/>
    <path id="Path_58" data-name="Path 58" d="M217.68,667.505c0-24.151,15.127-43.7,33.821-43.7" transform="translate(-150.779 -421.607)" fill="#f90"/>
    <ellipse id="Ellipse_17" data-name="Ellipse 17" cx="182.614" cy="6.072" rx="182.614" ry="6.072" transform="translate(6.02 253.953)" fill="#6c63ff" opacity="0.1"/>
    <ellipse id="Ellipse_18" data-name="Ellipse 18" cx="6.676" cy="1.129" rx="6.676" ry="1.129" transform="translate(57.199 248.439)" fill="#6c63ff" opacity="0.1"/>
    <path id="Path_59" data-name="Path 59" d="M196.66,737.977s3.81-.114,4.957-.933,5.854-1.787,6.14-.483,5.718,6.518,1.429,6.551-9.985-.668-11.132-1.365S196.66,737.977,196.66,737.977Z" transform="translate(-137.271 -493.655)" fill="#a8a8a8"/>
    <path id="Path_60" data-name="Path 60" d="M209.257,746.345c-4.288.032-9.988-.672-11.132-1.369-.872-.529-1.222-2.437-1.337-3.316h-.129s.243,3.073,1.387,3.77,6.836,1.4,11.132,1.365c1.24,0,1.669-.45,1.647-1.1C210.654,746.091,210.179,746.338,209.257,746.345Z" transform="translate(-137.271 -497.341)" opacity="0.2"/>
    <path id="Path_61" data-name="Path 61" d="M463.087,177.313a54.858,54.858,0,0,0-102.564-14.652,43.9,43.9,0,0,0,4.764,87.555h95.238a36.74,36.74,0,0,0,36.63-36.63A36.183,36.183,0,0,0,463.087,177.313Zm-42.126,21.6v27.839H397.517V198.916H372.609l36.63-36.612,36.63,36.63Z" transform="translate(-217.388 -106.196)" fill="#f90"/>
    <path id="Path_62" data-name="Path 62" d="M383.955,146.589c-.357-2.041-.182-4.238-1.119-6.075a1.322,1.322,0,0,0-.425-.547,1.468,1.468,0,0,0-.761-.175c-.847-.032-1.69-.043-2.537-.021a.7.7,0,0,0-.636.243.258.258,0,0,0-.032.071c-.968-1.072-1.7-2.427-2.745-3.427.15-.05.3-.1.45-.136a1.437,1.437,0,0,0-.057-.3.367.367,0,0,0-.025-.089c-.007-.029-.032-.136-.054-.2a.665.665,0,0,0-.036-.1,1.973,1.973,0,0,0-.064-.189.276.276,0,0,0-.039-.1l-.075-.189-.043-.089c-.029-.064-.057-.129-.089-.189l-.043-.079c-.032-.068-.068-.136-.1-.2l-.036-.064c-.039-.071-.082-.143-.121-.218a.146.146,0,0,1-.025-.039c-.046-.082-.1-.164-.147-.243h0c-.407-.665-.858-1.319-1.19-2a25.842,25.842,0,0,1-1.165-3.835,5.177,5.177,0,0,0-2.23-3.191c-.561-.286-1.312-.54-1.365-1.172a1.4,1.4,0,0,1,.125-.59,7.9,7.9,0,0,1,.583-1.183c.086-.136.175-.272.264-.407l.071-.1c.072-.1.147-.2.222-.293l.093-.118c.075-.093.154-.179.232-.268l.1-.1c.111-.118.222-.232.339-.357a.826.826,0,0,0,.25-.318.966.966,0,0,0,.018-.379,4.535,4.535,0,0,1,1.072-2.8,10.707,10.707,0,0,0,1.633-2.562c.039-.111.071-.222.1-.336a1.011,1.011,0,0,0,.025-.111c.018-.075.032-.15.046-.229l.021-.129a2.01,2.01,0,0,1,.025-.211V112.7a1.088,1.088,0,0,0-.018-.225v-.122a2.174,2.174,0,0,0-.036-.261v-.086q-.025-.175-.064-.357h0a17.868,17.868,0,0,0-.658-2.237,8,8,0,0,0-.543-1.3c.132-.025.268-.054.4-.089a5.83,5.83,0,0,1-.289-.507,13.309,13.309,0,0,0,1.826-3.963,18.337,18.337,0,0,0,.357-3.063,63.524,63.524,0,0,0,.139-9.292v-.121a7.505,7.505,0,0,0,.021-2,8.4,8.4,0,0,0-1.122-3.692,4.5,4.5,0,0,0-3.109-2.187,4.919,4.919,0,0,1-.693.643,2.726,2.726,0,0,1-.811-1.262,6.865,6.865,0,0,0,5.757-6.011c0-.111.025-.225.032-.336v-.979a1.008,1.008,0,0,0-.021-.232.637.637,0,0,0,0-.082l-.032-.25v-.054a1.4,1.4,0,0,0-.046-.268V74.34c-.018-.1-.039-.189-.064-.286h0a6.882,6.882,0,0,0-.754-1.851,6.894,6.894,0,0,0,.543-1.987c0-.125.025-.247.032-.357s0-.157,0-.236V69.2a.1.1,0,0,1,0-.032,6.947,6.947,0,0,0-1.926-4.6,4.021,4.021,0,0,0,.34-.715h0c.029-.075.054-.15.075-.229h0c.021-.075.043-.147.061-.222v-.018l.043-.2a.108.108,0,0,1,0-.036,2,2,0,0,1,.036-.243,1.971,1.971,0,0,1,.021-.25v-.59a4.228,4.228,0,0,0-8.427-.189,4.363,4.363,0,0,0,.039,1.3,6.915,6.915,0,0,0-3.835,5.393,7.009,7.009,0,0,0-.039,1.158,6.972,6.972,0,0,0-1.072,3.216h0v.129c0,.143-.018.289-.018.432A6.944,6.944,0,0,0,363.275,79a4.886,4.886,0,0,0,1.351,1.429,5.387,5.387,0,0,1,.218.893,2.709,2.709,0,0,1-.822,2.219c-.154.129-.325.236-.486.357a.9.9,0,0,0-.5,0,7.208,7.208,0,0,0-4.456,3.481,6.793,6.793,0,0,0-.443,1.244l-.1.154a17.869,17.869,0,0,0-2.38,5.718,12.606,12.606,0,0,1-.865,3.066,3.166,3.166,0,0,0-.282.625,6.239,6.239,0,0,0-.043,1,16.218,16.218,0,0,1-.522,1.744c-.071.357-.057.715-.118,1.072a10.928,10.928,0,0,1-.668,1.787c-.379,1.051-.375,2.2-.658,3.288a1.154,1.154,0,0,1-.222.49,2.519,2.519,0,0,1-.743.4,1.64,1.64,0,0,0-.747,1.119,4.92,4.92,0,0,0-.025,1.394l.139,1.812-2.03.615-3.331,1.019a9.913,9.913,0,0,0-2.766,1.169,5.085,5.085,0,0,0-1.744,2.116,10.658,10.658,0,0,0-.647,2.762,41.96,41.96,0,0,1-1.712,7.791c-.068.193-.139.39-.211.583h0l-.225.568c-.018.039-.036.079-.05.118l-.193.454c-.086.193-.175.382-.268.572l7.8,2.6a2.521,2.521,0,0,0,.032.3c.272,1.915.139,3.86.389,5.779a3.734,3.734,0,0,0,.218.933,1.33,1.33,0,0,0-.411.65,3.459,3.459,0,0,0-.039,1.244c.089.979.175,1.958.264,2.938a4.545,4.545,0,0,1,0,1.072,11.525,11.525,0,0,1-.672,1.833,1.608,1.608,0,0,0,.318,1.787,1.265,1.265,0,0,0,1.229.111,2.888,2.888,0,0,0,1.019-.783c1.569-1.744,2.273-4.1,3.491-6.111a11.523,11.523,0,0,0,.836-1.454c.168-.39.275-.8.411-1.208a12.4,12.4,0,0,1,.672-1.569c.147-.289.715-.986.586-1.308-.2-.554-2.341-1.04-2.859-1.211a1.429,1.429,0,0,0-1.047-.046.657.657,0,0,0-.143.093l-.182-2.362c.318-.029.633-.068.943-.122q0-.665-.032-1.34c0-.407-.018-.818-.029-1.229-.021-1-.043-2-.068-2.984a16.542,16.542,0,0,0-.111-1.733c-.122-.876-.39-1.733-.475-2.616a1,1,0,0,1,.443-.2h0a3.138,3.138,0,0,1,.758-.029h.2a6.489,6.489,0,0,0,3.156-.872c.983-.511,1.894-1.151,2.859-1.676l.357-.189.136-.068.229-.114.189-.089.043-.021c.568-.272,1.144-.536,1.694-.833a1.922,1.922,0,0,0,.121.175,1.14,1.14,0,0,0,1.19.432,18.6,18.6,0,0,0-1.669,4.957c-.293,2.541.715,5,1.719,7.369l3.177,7.5c.357.829.818,1.758,1.687,1.955a2.5,2.5,0,0,0,1.594-.318,29.847,29.847,0,0,0,4.1-2.616l.054.043a13.975,13.975,0,0,1,2.791,3.545l2.226,3.659a1.1,1.1,0,0,0,.089.536,3.12,3.12,0,0,0,.625.811,10.539,10.539,0,0,1,2.68,5.486,3.37,3.37,0,0,0,.443,1.494,2.193,2.193,0,0,0,2.766.3,1.744,1.744,0,0,0,.693-.572,2.26,2.26,0,0,0,.279-.865,11.932,11.932,0,0,0,.268-2.3A26.84,26.84,0,0,0,383.955,146.589ZM371.172,79.254a5.22,5.22,0,0,0,.45-.332,6.912,6.912,0,0,1-1.429,2.452h0c-.15.164-.311.318-.475.468v-.114c-.018-.357,0-.754,0-1.133A4.782,4.782,0,0,0,371.172,79.254Zm-12.619,28.2.021-.068a1.365,1.365,0,0,1,.325.332,1.351,1.351,0,0,0,.05,1.211c.186.314.522.608.45.968s-.529.5-.9.565c-.49.079-.972.168-1.454.264V110.7a3.751,3.751,0,0,0-.161-1.19A3.44,3.44,0,0,0,358.554,107.454Z" transform="translate(-227.927 -58.05)" fill="url(#linear-gradient)"/>
    <path id="Path_63" data-name="Path 63" d="M414.627,68.311a4.242,4.242,0,1,0-7.862-2.677,4.154,4.154,0,0,0,.039,1.283A6.79,6.79,0,0,0,402.93,73.4a6.819,6.819,0,1,0,12.547,3.72v-.325a6.822,6.822,0,0,0-.833-8.48Z" transform="translate(-269.126 -60.512)" fill="#46455b"/>
    <g id="Group_10" data-name="Group 10" transform="translate(132.696 5.072)" opacity="0.1">
      <path id="Path_64" data-name="Path 64" d="M415.59,72.454l.057-.032a2.213,2.213,0,0,1-.032-.222.211.211,0,0,0,0,.046A1.947,1.947,0,0,0,415.59,72.454Z" transform="translate(-410.658 -72.196)"/>
      <path id="Path_65" data-name="Path 65" d="M416.481,91.842a6.79,6.79,0,0,1-1.054,2.905v.322a6.819,6.819,0,0,1-13.612.55c0,.186-.025.357-.025.557a6.819,6.819,0,0,0,13.637,0v-.325a6.751,6.751,0,0,0,1.054-2.905,6.575,6.575,0,0,0,.025-1.376A1,1,0,0,1,416.481,91.842Z" transform="translate(-401.79 -84.644)"/>
      <path id="Path_66" data-name="Path 66" d="M438.181,72.19a4.256,4.256,0,0,1-.561,1.622c.121.122.232.25.357.379a4.229,4.229,0,0,0,.222-.933A4.11,4.11,0,0,0,438.181,72.19Z" transform="translate(-424.816 -72.19)"/>
    </g>
    <path id="Path_67" data-name="Path 67" d="M359.964,271.98a3.092,3.092,0,0,0,.311,1.115,1.222,1.222,0,0,0,.9.661,1.822,1.822,0,0,0,1-.29,3.41,3.41,0,0,0,1.551-1.294,3.511,3.511,0,0,0,.211-1.948l-.407-5.2c-.979-.029-1.966-.029-2.948.025s-1.144.282-1.008,1.233C359.843,268.171,359.7,270.09,359.964,271.98Z" transform="translate(-241.939 -191.028)" fill="#fbbebe"/>
    <path id="Path_68" data-name="Path 68" d="M434.988,283.046l2.334,3.774a.929.929,0,0,0,.511.479.775.775,0,0,0,.486-.086,6.075,6.075,0,0,0,1.948-1.615,3.574,3.574,0,0,0,.936-1.429,1.826,1.826,0,0,0-.465-1.719,5.5,5.5,0,0,0-.876-.636c-1.848-1.247-2.68-3.613-4.5-4.892a.715.715,0,0,0-.357-.161.786.786,0,0,0-.379.129l-2.5,1.365c-1.072.59-.74.661.082,1.3A14.168,14.168,0,0,1,434.988,283.046Z" transform="translate(-288.151 -198.581)" fill="#fbbebe"/>
    <path id="Path_69" data-name="Path 69" d="M364.437,275.888a1.429,1.429,0,0,0-1.047-.036,1.151,1.151,0,0,0-.547.861,10.533,10.533,0,0,1-.154,1.047,3.574,3.574,0,0,1-1.018,1.43,1.523,1.523,0,0,1-.64.447c-.339.086-.7-.072-1.04,0a1.136,1.136,0,0,0-.818.836,3.28,3.28,0,0,0-.039,1.226l.264,2.895a4.426,4.426,0,0,1,0,1.072,11.247,11.247,0,0,1-.672,1.808,1.612,1.612,0,0,0,.318,1.787,1.29,1.29,0,0,0,1.233.107,2.858,2.858,0,0,0,1.018-.772c1.572-1.715,2.276-4.042,3.5-6.022a11.572,11.572,0,0,0,.836-1.429c.168-.386.275-.793.411-1.19a11.864,11.864,0,0,1,.675-1.547c.143-.286.715-.972.586-1.29C367.113,276.538,364.966,276.056,364.437,275.888Z" transform="translate(-241.34 -197.945)" fill="#46455b"/>
    <path id="Path_70" data-name="Path 70" d="M449.993,291.249a3.009,3.009,0,0,1-1.658,1.429,1.526,1.526,0,0,0-.561.289.872.872,0,0,0-.1.954,3.085,3.085,0,0,0,.629.8,10.339,10.339,0,0,1,2.68,5.407,3.362,3.362,0,0,0,.447,1.476,2.22,2.22,0,0,0,2.773.3,1.787,1.787,0,0,0,.693-.561,2.209,2.209,0,0,0,.279-.854,11.607,11.607,0,0,0,.268-2.269,24.32,24.32,0,0,0-.815-4.235c-.357-2.012-.186-4.181-1.122-6a1.322,1.322,0,0,0-.418-.55,1.5,1.5,0,0,0-.765-.172c-.843-.032-1.694-.039-2.541-.021a.709.709,0,0,0-.636.239.736.736,0,0,0,.093.69C449.758,289.2,450.608,290.009,449.993,291.249Z" transform="translate(-298.518 -205.312)" fill="#46455b"/>
    <path id="Path_71" data-name="Path 71" d="M359.284,195.067a1.312,1.312,0,0,0-.307,1.651c.189.311.525.6.45.958s-.529.493-.9.554a73.629,73.629,0,0,0-9.649,2.441l-3.338,1a9.96,9.96,0,0,0-2.773,1.151,5,5,0,0,0-1.744,2.083,10.364,10.364,0,0,0-.65,2.723,33.258,33.258,0,0,1-2.662,9.949l8.087,2.655a11.885,11.885,0,0,0,2.427.608,8.885,8.885,0,0,0,2.362-.114c-.05-1.8-.082-3.667-.132-5.475a15.121,15.121,0,0,0-.111-1.708c-.121-.865-.39-1.708-.475-2.58a2.069,2.069,0,0,1,1.4-.218,6.629,6.629,0,0,0,3.166-.854c.979-.507,1.894-1.136,2.859-1.655,1.626-.861,3.477-1.429,4.721-2.8-.633,2.412-2.144,4.514-2.419,6.99s.715,4.95,1.726,7.262l3.184,7.39c.357.815.818,1.733,1.687,1.926a2.555,2.555,0,0,0,1.6-.314c2.93-1.372,5.275-3.956,8.405-4.778-.236-1.551-1.458-2.834-2.144-4.238a24.774,24.774,0,0,1-1.165-3.781,5.08,5.08,0,0,0-2.237-3.145c-.561-.282-1.315-.532-1.365-1.158a1.28,1.28,0,0,1,.125-.583,7.531,7.531,0,0,1,1.9-2.77.89.89,0,0,0,.25-.314,1,1,0,0,0,.018-.357,4.417,4.417,0,0,1,1.072-2.759,10.586,10.586,0,0,0,1.637-2.527c.583-1.633,0-3.427-.572-5.06a5.1,5.1,0,0,0-.958-1.855,4.715,4.715,0,0,0-3.009-1.154C366.231,193.817,362.09,192.891,359.284,195.067Z" transform="translate(-227.914 -145.188)" fill="#46455b"/>
    <g id="Group_11" data-name="Group 11" transform="translate(109.789 49.768)" opacity="0.1">
      <path id="Path_72" data-name="Path 72" d="M429.459,212.535a4.337,4.337,0,0,0-1.072,2.759,1,1,0,0,1-.018.357.89.89,0,0,1-.25.314,7.53,7.53,0,0,0-1.9,2.77,1.286,1.286,0,0,0-.125.583,1.118,1.118,0,0,0,.715.836,7.505,7.505,0,0,1,1.322-1.608.89.89,0,0,0,.25-.314,1,1,0,0,0,.018-.357,4.417,4.417,0,0,1,1.072-2.759,10.586,10.586,0,0,0,1.637-2.527,5.246,5.246,0,0,0,.086-2.859q-.036.139-.086.279A10.436,10.436,0,0,1,429.459,212.535Z" transform="translate(-394.498 -205.274)"/>
      <path id="Path_73" data-name="Path 73" d="M397.05,197.86a.676.676,0,0,0,.511-.461.464.464,0,0,0,0-.139l-.154.111A1.244,1.244,0,0,0,397.05,197.86Z" transform="translate(-375.837 -197.26)"/>
      <path id="Path_74" data-name="Path 74" d="M348.211,257.172a11.889,11.889,0,0,1-2.427-.608l-7.147-2.344a20.555,20.555,0,0,1-.947,2.269l8.094,2.655a11.885,11.885,0,0,0,2.427.608,8.885,8.885,0,0,0,2.362-.114c-.025-.847-.043-1.708-.064-2.569A8.846,8.846,0,0,1,348.211,257.172Z" transform="translate(-337.69 -233.864)"/>
      <path id="Path_75" data-name="Path 75" d="M407.083,259.182a2.555,2.555,0,0,1-1.6.314c-.868-.193-1.337-1.111-1.687-1.926l-3.184-7.39a20.234,20.234,0,0,1-1.669-5.05c-.021.122-.039.243-.057.357-.289,2.5.715,4.95,1.726,7.262l3.184,7.39c.357.815.818,1.733,1.687,1.926a2.555,2.555,0,0,0,1.6-.315c2.93-1.372,5.275-3.956,8.405-4.778a6.075,6.075,0,0,0-.961-2.262C411.861,255.758,409.707,257.949,407.083,259.182Z" transform="translate(-376.986 -228.023)"/>
      <path id="Path_76" data-name="Path 76" d="M383.907,219.38c-1.244,1.358-3.095,1.937-4.721,2.8-.976.518-1.89,1.147-2.859,1.655a6.632,6.632,0,0,1-3.166.858c-.482,0-1.026-.093-1.4.214.079.8.311,1.587.443,2.384a4.289,4.289,0,0,1,.958-.021,6.629,6.629,0,0,0,3.166-.854c.979-.507,1.894-1.136,2.859-1.655,1.072-.568,2.241-1.011,3.27-1.64a28.194,28.194,0,0,0,1.451-3.738Z" transform="translate(-359.585 -211.475)"/>
    </g>
    <path id="Path_77" data-name="Path 77" d="M410.242,120.813A2.641,2.641,0,0,1,409.42,123c-.2.168-.429.293-.618.468a1.676,1.676,0,0,0,.243,2.548,3.185,3.185,0,0,0,2.2.157,12.736,12.736,0,0,0,2.895-.754,4.785,4.785,0,0,0,2.28-1.869,2.809,2.809,0,0,1-1.3-2.323c-.05-.926.2-1.976-.382-2.695a2.358,2.358,0,0,0-2.5-.45c-.432.121-.851.286-1.283.4-.222.057-.943.061-1.072.222C409.638,119,410.217,120.345,410.242,120.813Z" transform="translate(-273.294 -96.511)" fill="#fbbebe"/>
    <path id="Path_78" data-name="Path 78" d="M410.242,120.813A2.641,2.641,0,0,1,409.42,123c-.2.168-.429.293-.618.468a1.676,1.676,0,0,0,.243,2.548,3.185,3.185,0,0,0,2.2.157,12.736,12.736,0,0,0,2.895-.754,4.785,4.785,0,0,0,2.28-1.869,2.809,2.809,0,0,1-1.3-2.323c-.05-.926.2-1.976-.382-2.695a2.358,2.358,0,0,0-2.5-.45c-.432.121-.851.286-1.283.4-.222.057-.943.061-1.072.222C409.638,119,410.217,120.345,410.242,120.813Z" transform="translate(-273.294 -96.511)" opacity="0.1"/>
    <circle id="Ellipse_19" data-name="Ellipse 19" cx="4.792" cy="4.792" r="4.792" transform="translate(134.64 14.668)" fill="#fbbebe"/>
    <path id="Path_79" data-name="Path 79" d="M376.336,211.662a3.245,3.245,0,0,1-.45,1.072,4.96,4.96,0,0,0-.572,3.27,3.441,3.441,0,0,0,2.012,2.544,1.376,1.376,0,0,0,1.376-.086,4.607,4.607,0,0,1-.636-3.02,1.011,1.011,0,0,1,.132-.561.357.357,0,0,1,.507-.089,4.51,4.51,0,0,0,.375,1.926c.1.232.272.49.529.482.357,0,.461-.5.447-.868a9.625,9.625,0,0,0-.843-4.335,5.128,5.128,0,0,1-.715-1.462.865.865,0,0,0-.186-.511.64.64,0,0,0-.268-.125c-.411-.118-1.39-.479-1.73-.093S376.4,211.169,376.336,211.662Z" transform="translate(-252.035 -155.444)" fill="#fbbebe"/>
    <path id="Path_80" data-name="Path 80" d="M382.731,144.07c-.55-.064-.983.44-1.283.9a17.475,17.475,0,0,0-2.387,5.654,12.129,12.129,0,0,1-.865,3.023,3.08,3.08,0,0,0-.282.615,6.545,6.545,0,0,0-.043.993,16.04,16.04,0,0,1-.522,1.719c-.071.357-.057.715-.122,1.072a10.456,10.456,0,0,1-.665,1.755c-.382,1.036-.379,2.173-.661,3.241a1.111,1.111,0,0,1-.222.479c-.189.211-.5.261-.743.4a1.615,1.615,0,0,0-.75,1.1,4.766,4.766,0,0,0-.025,1.372l.222,2.834c.225-.1.357-.357.565-.511a1.6,1.6,0,0,1,1.3-.143l.647.118a2.786,2.786,0,0,1,1.787.793c.336-.529.147-1.3.661-1.655.168-.114.379-.15.554-.25a1.24,1.24,0,0,0,.565-.993,3.666,3.666,0,0,0-.161-1.176,3.439,3.439,0,0,0,1.669-2.03,16.979,16.979,0,0,0,.772-3.131,80.9,80.9,0,0,0,1.5-12.733,6.12,6.12,0,0,0-.232-2.119C383.786,144.724,383.443,144.149,382.731,144.07Z" transform="translate(-251.315 -113.306)" fill="#fee1b6"/>
    <path id="Path_82" data-name="Path 82" d="M406.581,131.24a6.047,6.047,0,0,1-2.913,1.694,17.869,17.869,0,0,1-3.377.5,2.144,2.144,0,0,1-1.044-.089.715.715,0,0,1-.432-.854,1.023,1.023,0,0,0,.125-.332c0-.293-.436-.318-.715-.232a7.212,7.212,0,0,0-4.464,3.434,10.363,10.363,0,0,0-.793,3.159,26.421,26.421,0,0,0-.264,8.577,27.2,27.2,0,0,1,.872,4.5c.021.858-.125,1.712-.118,2.569a1.3,1.3,0,0,0,.229.847c.132.154.332.25.425.432.154.3-.054.715.15.99.254.336.776.093,1.122-.143a8.913,8.913,0,0,1,5.929-1.49c2.5.268,5,1.608,7.44.936a3.407,3.407,0,0,1-.322-.579,16.939,16.939,0,0,1,.686-12.2,15.646,15.646,0,0,0,1.68-3.91,7.506,7.506,0,0,0,.025-1.983,8.219,8.219,0,0,0-1.126-3.642A4.463,4.463,0,0,0,406.581,131.24Z" transform="translate(-263.089 -105.065)" fill="#fee1b6"/>
    <path id="Path_83" data-name="Path 83" d="M399.066,216.073a4.42,4.42,0,0,0-.275,1.633,9.862,9.862,0,0,0,.079,1.59,2.545,2.545,0,0,0,.468,1.251,1.14,1.14,0,0,0,1.194.425,1.251,1.251,0,0,0,.715-.8,7.618,7.618,0,0,0,.229-1.094,18.374,18.374,0,0,0,.79-3.216.932.932,0,0,0-.061-.386,2.192,2.192,0,0,0-1.722-.89C399.867,214.683,399.3,215.548,399.066,216.073Z" transform="translate(-267.164 -158.622)" fill="#fbbebe"/>
    <path id="Path_84" data-name="Path 84" d="M413.286,142.56c-.093.954.829,1.672,1.194,2.555a4.372,4.372,0,0,1,.25,1.287,61.238,61.238,0,0,1-.143,9.159,17.1,17.1,0,0,1-.357,3.02,17.427,17.427,0,0,1-3.02,5.643,4.788,4.788,0,0,1-.647.793,4.85,4.85,0,0,1-1.2.715l-4.253,2.062a8.219,8.219,0,0,0-1.512.868,4.123,4.123,0,0,0-1.251,1.63c-.826-.422-1.683-.8-2.5-1.222-.193-.1-.411-.229-.443-.443-.043-.286.257-.49.465-.715a4.207,4.207,0,0,0,.715-1.451c.686-1.644,2.405-2.695,3.027-4.36a6.615,6.615,0,0,1,.736-1.9,4.71,4.71,0,0,1,.811-.715,13.678,13.678,0,0,0,1.787-1.84,3.126,3.126,0,0,0,.59-.861,4.261,4.261,0,0,0,.139-1.508c.032-1.665.786-3.216,1.247-4.817.432-1.5.615-3.084,1.183-4.546A5.256,5.256,0,0,1,413.286,142.56Z" transform="translate(-267.557 -112.34)" opacity="0.1"/>
    <path id="Path_85" data-name="Path 85" d="M414.8,142.56c-.093.954.826,1.672,1.19,2.555a4.374,4.374,0,0,1,.254,1.286,61.731,61.731,0,0,1-.143,9.159,17.1,17.1,0,0,1-.375,3.02,17.428,17.428,0,0,1-3.02,5.643,4.788,4.788,0,0,1-.647.793,4.849,4.849,0,0,1-1.2.715l-4.256,2.062a8.455,8.455,0,0,0-1.512.868,4.157,4.157,0,0,0-1.251,1.63c-.826-.422-1.68-.8-2.5-1.222-.193-.1-.411-.229-.443-.443-.046-.286.254-.49.461-.715a4.084,4.084,0,0,0,.715-1.451c.683-1.644,2.405-2.695,3.027-4.36a6.614,6.614,0,0,1,.736-1.9,4.455,4.455,0,0,1,.811-.715,13.68,13.68,0,0,0,1.787-1.84,3.127,3.127,0,0,0,.59-.861,4.347,4.347,0,0,0,.139-1.508,19.208,19.208,0,0,1,1.244-4.817c.436-1.5.615-3.084,1.183-4.546A5.315,5.315,0,0,1,414.8,142.56Z" transform="translate(-268.514 -112.34)" fill="#fee1b6"/>
    <path id="Path_86" data-name="Path 86" d="M419.633,91.631a6.79,6.79,0,0,0-4.253.883,2.541,2.541,0,0,1,.568.043,6.819,6.819,0,0,1,2.619,12.658,6.819,6.819,0,0,0,1.072-13.58Z" transform="translate(-277.827 -79.579)" fill="#46455b"/>
    <path id="Path_87" data-name="Path 87" d="M417.311,98.519a3.106,3.106,0,0,1,.054,2.387c-.032-.1-.068-.193-.111-.289-.843-1.876-3.438-2.652-5.8-1.733a4.735,4.735,0,0,0-2.8,2.67c-.6-1.815.618-3.9,2.859-4.767C413.874,95.867,416.468,96.643,417.311,98.519Z" transform="translate(-273.408 -82.675)" fill="#46455b"/>
    <g id="Group_12" data-name="Group 12" transform="translate(137.552 2.146)" opacity="0.1">
      <path id="Path_88" data-name="Path 88" d="M421.745,98.022a4.269,4.269,0,0,0-6.365-5.168,2.539,2.539,0,0,1,.568.043A6.815,6.815,0,0,1,421.745,98.022Z" transform="translate(-415.38 -82.084)"/>
      <path id="Path_89" data-name="Path 89" d="M424.835,84.092a4.249,4.249,0,0,0-6.365-5.146,2.586,2.586,0,0,1,.572.043A6.811,6.811,0,0,1,424.835,84.092Z" transform="translate(-417.366 -73.132)"/>
      <path id="Path_90" data-name="Path 90" d="M429.452,67.531a2.565,2.565,0,0,0-3.842-3.091,1.569,1.569,0,0,1,.357.029,4.11,4.11,0,0,1,3.484,3.063Z" transform="translate(-421.954 -64)"/>
      <path id="Path_91" data-name="Path 91" d="M431.161,106a6.829,6.829,0,0,1-5.282,7.2,6.862,6.862,0,0,1-1.58,1.272A6.819,6.819,0,0,0,431.161,106Z" transform="translate(-421.112 -90.991)"/>
    </g>
    <path id="Path_92" data-name="Path 92" d="M541.325,304.627a2.627,2.627,0,0,0-3.141-.154,4.455,4.455,0,0,0-1.319,2.237,15.968,15.968,0,0,0-1.236,3.713c-.318,3.574-2.823,6.579-3.574,10.081a19.2,19.2,0,0,1-.847,3.734,11.249,11.249,0,0,1-.858,1.476,39.058,39.058,0,0,0-3.216,6.229,4.731,4.731,0,0,0-1.63,1.262,6.075,6.075,0,0,1-2.234,1.358,2.205,2.205,0,0,0-.926.454c-.357.379-.357.99-.654,1.429a2.115,2.115,0,0,1-.815.668,3.074,3.074,0,0,1-.05-.307c-.075-.547-.136-1.094-.193-1.64a6.19,6.19,0,0,0-.843-7.987,12.018,12.018,0,0,1,.075-2.559,1.126,1.126,0,0,0-.357-1.136c-.175-.111-.39-.136-.575-.229a2.334,2.334,0,0,1-.672-.69,3.216,3.216,0,0,0-4.1-.608c-1,.668-1.529,1.855-2.384,2.709-.443.44-.969.786-1.408,1.226a6.34,6.34,0,0,0-1.637,3.406,18.545,18.545,0,0,0-.154,3.831,3.5,3.5,0,0,0,.164,1.144,3,3,0,0,0,.522.829,9.927,9.927,0,0,0,4.017,3.105,1.75,1.75,0,0,1,.018.229,1.522,1.522,0,0,1-.029.357l-.175-.029a7.264,7.264,0,0,1-1.919-.247c-1.018-.44-1.429-1.733-2.434-2.241a1.483,1.483,0,0,0-.261-.107,16.569,16.569,0,0,0-1.454-4.8,5.946,5.946,0,0,1-.8-2.266,5.765,5.765,0,0,1,.5-2.176,56.229,56.229,0,0,0,1.908-7.5q.486-2.391.979-4.782a7.184,7.184,0,0,0,1.165-1.362,6.632,6.632,0,0,0,1.165-3.37,4.57,4.57,0,0,0-1.179-3.313,1.958,1.958,0,0,0-1.469-.715,1.787,1.787,0,0,0-1.229.715,5.88,5.88,0,0,0-.929,2.03,8.866,8.866,0,0,0-.554,3.652c.146,1.018.643,2.123.136,3.016a72.267,72.267,0,0,0-4.067,9.356,15.7,15.7,0,0,0-.779,2.323,12.292,12.292,0,0,0-.129,3.881,51.259,51.259,0,0,0,1.4,7.18,9.226,9.226,0,0,0,1.183,3.088,13.312,13.312,0,0,0-.157,3.631,2.008,2.008,0,0,0,.214.8,3.425,3.425,0,0,0,.736.754,3.67,3.67,0,0,1,1.169,2.8,8.311,8.311,0,0,0,.561,2.859c.854,2.548,1.712,5.1,2.459,7.68a5.043,5.043,0,0,1,.264,1.483,9.878,9.878,0,0,0-.182,2.144,7.634,7.634,0,0,1,.293.99,2.565,2.565,0,0,1-.1.768c-.465,2.019-1.808,6.676-1.576,8.738l.461-.161c-.2,2.73-1.04,5.4-1.347,8.134a26.734,26.734,0,0,0,.064,5.975,21.021,21.021,0,0,1,.229,2.677c0,.8-.129,1.6-.161,2.4a21.83,21.83,0,0,0,.189,3.216,33.231,33.231,0,0,0,.8,4.964c.743,2.773.243,5.661.325,8.534a51.953,51.953,0,0,1-.061,6.014c-.075.847-.193,1.69-.218,2.541-.075,2.523.672,5.035.407,7.544-.125,1.176-.425,2.5.314,3.427.236.289.554.5.8.772a1.072,1.072,0,0,1,.311,1.018c-.1.282-.357.49-.418.786-.068.465.443.786.886.936l.125.036a1.1,1.1,0,0,0,.318.843,1.894,1.894,0,0,0,.954.379l5.718,1.108a7.45,7.45,0,0,0,3.86.046.98.98,0,0,0,.268.454,1.894,1.894,0,0,0,.951.379l5.718,1.108c1.458.282,3.059.543,4.36-.179a2.451,2.451,0,0,0,.918-.854,2.648,2.648,0,0,0,.125-2.233,1.827,1.827,0,0,0-.636-.926,2.373,2.373,0,0,0-1.329-.286,2.622,2.622,0,0,1-1.151-.175.854.854,0,0,1-.286-.243c.286-.357.561-.715.822-1.072-.247-.057-.357-.4-.418-.647-.736-3.709.3-7.5.447-11.293a24.047,24.047,0,0,0-.443-5.657c-.139-.715-.307-1.394-.407-2.1-.525-3.692.879-7.44.432-11.143-.211-1.73.532-3.538.8-5.26a18.909,18.909,0,0,0-.068-4.646l-1.183-12.15a14.571,14.571,0,0,0-1.029-4.814,6.3,6.3,0,0,1-.486-2.641c1.429-.818,2.745-1.944,4.36-1.948.311-1.179-.582-4.9-1.1-6a26.177,26.177,0,0,1-2.326-13.919c.189-1.712-.493-3.438-.264-5.146a3.1,3.1,0,0,1,.329-1.147,1.183,1.183,0,0,1,.951-.633c-.1-1.026-.232-2.058-.407-3.084a7.506,7.506,0,0,0,1.43-2.055,26.979,26.979,0,0,0,1.5-4.935c.786-2.934,1.987-5.736,2.938-8.616s.765-5.925,1.447-8.884a6.518,6.518,0,0,1,2.787-3.963,5.236,5.236,0,0,0,1.537-1.161,2.652,2.652,0,0,0,.429-1.462A3.742,3.742,0,0,0,541.325,304.627ZM519.483,429.663c.107-.147.211-.293.307-.447-.379-.021-.858-.243-.9-.622a4.031,4.031,0,0,1,.125-1.126,4.476,4.476,0,0,0-.118-1.969c-.132-.443-.329-.868-.472-1.311a13.266,13.266,0,0,1-.332-1.5,25.7,25.7,0,0,0-1.626-5.285c-.715-1.647-.161-3.445-.154-5.243a10,10,0,0,1,.086-2.534c.125-.486.357-.936.49-1.429a6.254,6.254,0,0,0-.436-3.434c1.412-3.338,1.6-7.147,1.89-10.778q.243-3.045.486-6.075a5.775,5.775,0,0,1,.629-2.616,31.186,31.186,0,0,1,1.5,7.973,12.094,12.094,0,0,0,.272,2.33c.225.847.665,1.615.958,2.437.65,1.808.583,3.785.876,5.682.118.768.3,1.526.411,2.294.493,3.391-.3,6.826-1.1,10.16a36.445,36.445,0,0,0-.518,6.4c-.1,2.012-.211,4.024-.161,6.04,0,.615.039,1.244.032,1.869a4.563,4.563,0,0,0-.586-.032,2.624,2.624,0,0,1-1.151-.175,1.311,1.311,0,0,1-.5-.607Z" transform="translate(-333.261 -216.103)" fill="url(#linear-gradient-2)"/>
    <path id="Path_93" data-name="Path 93" d="M567.685,661.091a2.408,2.408,0,0,1,1.329.282,1.852,1.852,0,0,1,.636.922,2.619,2.619,0,0,1-.129,2.219,2.433,2.433,0,0,1-.918.847c-1.3.715-2.9.461-4.36.182l-5.718-1.1a1.9,1.9,0,0,1-.954-.357,1.236,1.236,0,0,1-.168-1.429,2.738,2.738,0,0,1,1.072-1.072,13.069,13.069,0,0,1,5.461-1.647c.715-.086,1.383-.314,1.919.182.286.261.272.586.672.8A2.674,2.674,0,0,0,567.685,661.091Z" transform="translate(-368.998 -444.744)" fill="#3f3d56"/>
    <path id="Path_94" data-name="Path 94" d="M537.444,655.588a2.394,2.394,0,0,1,1.326.282,1.808,1.808,0,0,1,.636.922,2.605,2.605,0,0,1-.125,2.219,2.463,2.463,0,0,1-.918.847c-1.3.715-2.9.461-4.363.182l-5.718-1.1a1.9,1.9,0,0,1-.954-.357,1.236,1.236,0,0,1-.172-1.429,2.8,2.8,0,0,1,1.09-1.072,13.312,13.312,0,0,1,5.461-1.644c.715-.089,1.383-.314,1.919.179.282.261.272.586.668.8A2.645,2.645,0,0,0,537.444,655.588Z" transform="translate(-349.56 -441.206)" fill="#3f3d56"/>
    <path id="Path_95" data-name="Path 95" d="M529.389,484.163a68.689,68.689,0,0,0-9.874.754,1.972,1.972,0,0,0-.625.164c-.693.357-.715,1.329-.7,2.108.047,3.17-1.036,6.24-1.394,9.384a26.167,26.167,0,0,0,.061,5.936,22.185,22.185,0,0,1,.229,2.662c0,.793-.132,1.583-.164,2.38a21.555,21.555,0,0,0,.186,3.181,32.832,32.832,0,0,0,.8,4.932c.74,2.755.239,5.625.318,8.477a50.47,50.47,0,0,1-.068,5.975c-.075.843-.193,1.68-.218,2.527-.075,2.5.668,5,.4,7.5-.125,1.165-.429,2.5.311,3.4.236.286.554.493.8.768a1.072,1.072,0,0,1,.315,1.008c-.1.282-.375.49-.418.783-.071.461.44.783.883.929a8.17,8.17,0,0,0,9.216-3.313c-.379-.021-.858-.243-.9-.618a3.985,3.985,0,0,1,.125-1.119,4.357,4.357,0,0,0-.118-1.955c-.129-.443-.329-.865-.468-1.3a13.254,13.254,0,0,1-.332-1.494,25.255,25.255,0,0,0-1.622-5.253c-.715-1.637-.157-3.424-.15-5.2a10.044,10.044,0,0,1,.086-2.519c.125-.486.357-.933.493-1.43a6.166,6.166,0,0,0-.436-3.409c1.429-3.316,1.608-7.119,1.9-10.721l.49-6.075a5.747,5.747,0,0,1,.629-2.6,30.782,30.782,0,0,1,1.5,7.919,11.713,11.713,0,0,0,.268,2.319c.225.836.661,1.6.958,2.419.647,1.787.579,3.756.872,5.643.118.765.293,1.515.407,2.28.493,3.37-.307,6.79-1.1,10.1a36.059,36.059,0,0,0-.522,6.365c-.107,2-.214,4-.164,6,.043,1.84.186,3.817-.8,5.36a9.737,9.737,0,0,0,3.488,1.247,6.165,6.165,0,0,0,4.013-1.215,13.046,13.046,0,0,0,2.941-3.084c-.25-.057-.357-.4-.418-.643-.736-3.684.3-7.469.454-11.221a23.874,23.874,0,0,0-.44-5.618c-.139-.715-.311-1.39-.411-2.091-.518-3.667.886-7.394.443-11.078-.207-1.723.536-3.517.8-5.232a18.5,18.5,0,0,0-.064-4.6l-1.176-12.061a14.3,14.3,0,0,0-1.026-4.785c-.836-1.787-.318-3.988-.407-5.957A24.522,24.522,0,0,1,529.389,484.163Z" transform="translate(-342.913 -330.533)" fill="#46455b"/>
    <path id="Path_96" data-name="Path 96" d="M571.386,335.576A38.405,38.405,0,0,1,575.153,328a11.176,11.176,0,0,0,.858-1.469,18.651,18.651,0,0,0,.851-3.709c.768-3.481,3.277-6.468,3.6-10.006a15.653,15.653,0,0,1,1.24-3.692,4.489,4.489,0,0,1,1.319-2.223,2.645,2.645,0,0,1,3.138.15,3.691,3.691,0,0,1,1.269,3.005,2.645,2.645,0,0,1-.429,1.451,5.143,5.143,0,0,1-1.537,1.154,6.486,6.486,0,0,0-2.791,3.931c-.686,2.941-.5,5.961-1.454,8.823s-2.144,5.65-2.941,8.577a27.526,27.526,0,0,1-1.512,4.9,5.877,5.877,0,0,1-3.684,3.334,9.978,9.978,0,0,0-.815-3.077C571.761,338.024,570.964,336.723,571.386,335.576Z" transform="translate(-378.006 -217.665)" fill="#a0616a"/>
    <path id="Path_97" data-name="Path 97" d="M508.789,343a16.3,16.3,0,0,0-1.587-6.014,5.8,5.8,0,0,1-.8-2.248,5.679,5.679,0,0,1,.5-2.162,55.73,55.73,0,0,0,1.912-7.473l.986-4.753A7.232,7.232,0,0,0,510.958,319a6.554,6.554,0,0,0,1.169-3.349,4.517,4.517,0,0,0-1.176-3.295,1.962,1.962,0,0,0-1.469-.693,1.787,1.787,0,0,0-1.229.715,5.76,5.76,0,0,0-.911,2,8.81,8.81,0,0,0-.558,3.627c.143,1.011.643,2.108.132,2.995a72.109,72.109,0,0,0-4.074,9.292,15.649,15.649,0,0,0-.776,2.309,12.151,12.151,0,0,0-.136,3.86,50.66,50.66,0,0,0,1.394,7.147c.357,1.472.8,3.073,2.041,3.956A23.582,23.582,0,0,1,508.789,343Z" transform="translate(-333.388 -221.009)" fill="#a0616a"/>
    <circle id="Ellipse_20" data-name="Ellipse 20" cx="6.136" cy="6.136" r="6.136" transform="translate(176.237 110.127)" fill="#a0616a"/>
    <path id="Path_98" data-name="Path 98" d="M530.2,393.741a8.251,8.251,0,0,1-1,3.181c-.289.611-.668,1.294-1.329,1.429a29.746,29.746,0,0,0,5.764,1.655,6.339,6.339,0,0,0,2.058.118,4.946,4.946,0,0,0,1.64-.608,8.412,8.412,0,0,0,4.17-6.075,11.078,11.078,0,0,1-2.284.061,1.672,1.672,0,0,1-1.169-.432,1.755,1.755,0,0,1-.329-.958q-.2-1.522-.325-3.052a12.093,12.093,0,0,0-4.378,1c-.572.25-1.129.54-1.719.754-.357.129-1.39.154-1.64.386C529.274,391.572,530.221,392.97,530.2,393.741Z" transform="translate(-350.117 -270.749)" fill="#a0616a"/>
    <path id="Path_99" data-name="Path 99" d="M520.967,393.819a3.859,3.859,0,0,0-3.266-3.105,7.413,7.413,0,0,1-1.919-.239c-1.018-.44-1.447-1.723-2.434-2.226a2.6,2.6,0,0,0-2.995.808,6.673,6.673,0,0,0-1.258,3.063,14.83,14.83,0,0,0-.332,4.539,2.037,2.037,0,0,0,.218.8,3.471,3.471,0,0,0,.733.751,3.624,3.624,0,0,1,1.169,2.78,8.149,8.149,0,0,0,.557,2.859c.854,2.53,1.712,5.064,2.455,7.63a4.946,4.946,0,0,1,.264,1.472,8,8,0,0,0-.182,2.126,8.3,8.3,0,0,1,.289.983,2.53,2.53,0,0,1-.1.765c-.468,2.008-1.812,6.633-1.58,8.68a52.31,52.31,0,0,1,10.878-2.144,23.933,23.933,0,0,1,2.677-.157c2.144,0,4.392.4,6.393-.382,1.855-.715,3.4-2.437,5.389-2.444.311-1.169-.583-4.864-1.1-5.957a25.808,25.808,0,0,1-2.316-13.827c.186-1.7-.493-3.416-.261-5.114a3.06,3.06,0,0,1,.325-1.14,1.2,1.2,0,0,1,.954-.633,37.525,37.525,0,0,0-1.555-7.841c-.289-.908-.811-1.958-1.762-2.019-.858-.057-1.49.715-2.108,1.319a6.075,6.075,0,0,1-2.234,1.347,2.2,2.2,0,0,0-.929.454c-.357.375-.357.986-.654,1.429-.515.793-1.83.868-2.144,1.755a5.419,5.419,0,0,0-.139.793,2.83,2.83,0,0,1-.843,1.351,5.446,5.446,0,0,1-2.191,1.526Z" transform="translate(-337.807 -267.395)" fill="#2f2e41"/>
    <path id="Path_100" data-name="Path 100" d="M532.416,358.105a1.108,1.108,0,0,0-.357-1.126,5.43,5.43,0,0,0-.579-.232,2.358,2.358,0,0,1-.668-.693,3.216,3.216,0,0,0-4.1-.6c-1,.665-1.53,1.844-2.387,2.691-.44.44-.965.783-1.408,1.222a6.308,6.308,0,0,0-1.64,3.381,18.343,18.343,0,0,0-.154,3.81,3.369,3.369,0,0,0,.164,1.136,3.019,3.019,0,0,0,.522.822,9.756,9.756,0,0,0,4.22,3.166,5.97,5.97,0,0,0,5.142-.44.915.915,0,0,0,.357-.357,1.126,1.126,0,0,0,0-.686,4.645,4.645,0,0,1,.247-2.655,17.585,17.585,0,0,0,.793-1.8,6.039,6.039,0,0,0,.057-2.144A22.079,22.079,0,0,1,532.416,358.105Z" transform="translate(-345.757 -248.843)" fill="#46455b"/>
    <path id="Path_101" data-name="Path 101" d="M843.32,630c0,35.158,22.057,63.611,49.317,63.611" transform="translate(-552.836 -425.585)" fill="#f90"/>
    <path id="Path_102" data-name="Path 102" d="M981.32,692.326c0-35.558,24.612-64.326,55.034-64.326" transform="translate(-641.52 -424.3)" fill="#fee1b6"/>
    <path id="Path_103" data-name="Path 103" d="M893.32,638.86c0,33.4,14.062,60.427,31.448,60.427" transform="translate(-584.968 -431.279)" fill="#fee1b6"/>
    <path id="Path_104" data-name="Path 104" d="M981.32,660.194c0-45.432,28.45-82.194,63.611-82.194" transform="translate(-641.52 -392.168)" fill="#f90"/>
    <ellipse id="Ellipse_21" data-name="Ellipse 21" cx="12.261" cy="2.073" rx="12.261" ry="2.073" transform="translate(325.399 276.013)" fill="#6c63ff" opacity="0.1"/>
    <path id="Path_105" data-name="Path 105" d="M952.28,802.4s6.994-.214,9.1-1.715,10.76-3.295,11.282-.886,10.51,11.972,2.616,12.036-18.347-1.229-20.452-2.5S952.28,802.4,952.28,802.4Z" transform="translate(-622.857 -533.949)" fill="#a8a8a8"/>
    <path id="Path_106" data-name="Path 106" d="M975.389,817.788c-7.894.064-18.347-1.229-20.452-2.5-1.6-.979-2.241-4.478-2.451-6.1h-.236s.443,5.639,2.548,6.922,12.554,2.577,20.452,2.5c2.276-.018,3.066-.829,3.023-2.03C977.966,817.341,977.1,817.774,975.389,817.788Z" transform="translate(-622.838 -540.738)" opacity="0.2"/>
    <path id="Path_107" data-name="Path 107" d="M767.142,81.347a2.7,2.7,0,0,0,.49-1.5c0-3.259-6.64-5.9-14.831-5.9s-14.831,2.637-14.831,5.9a2.781,2.781,0,0,0,.583,1.672c-9.12,1.019-15.263,2.927-15.263,5.118,0,3.256,13.58,5.9,30.376,5.9s30.376-2.641,30.376-5.9C784.053,84.331,777.149,82.312,767.142,81.347Z" transform="translate(-475.701 -68.249)" fill="#6c63ff" opacity="0.1"/>
    <path id="Path_108" data-name="Path 108" d="M258.194,99.347a2.7,2.7,0,0,0,.49-1.5c0-3.259-6.64-5.9-14.831-5.9s-14.831,2.637-14.831,5.9a2.78,2.78,0,0,0,.611,1.672c-9.12,1.018-15.263,2.927-15.263,5.117,0,3.256,13.6,5.9,30.376,5.9s30.376-2.641,30.376-5.9C275.1,102.331,268.2,100.312,258.194,99.347Z" transform="translate(-148.652 -79.816)" fill="#6c63ff" opacity="0.1"/>
    <path id="Path_109" data-name="Path 109" d="M628.74,92.222a2.051,2.051,0,0,1,2.53.758,6.29,6.29,0,0,1,.875,2.723c.318,2.116.55,4.542-.875,6.132A19.938,19.938,0,0,1,647.709,88.57" transform="translate(-414.94 -77.644)" fill="none" stroke="#6c63ff" stroke-miterlimit="10" stroke-width="3" opacity="0.1"/>
    <path id="Path_110" data-name="Path 110" d="M295.21,195.522a1.334,1.334,0,0,1,1.626.486,3.827,3.827,0,0,1,.565,1.751c.2,1.362.357,2.92-.561,3.931a12.8,12.8,0,0,1,10.56-8.53" transform="translate(-200.602 -144.857)" fill="none" stroke="#6c63ff" stroke-miterlimit="10" stroke-width="3" opacity="0.1"/>
    <path id="Path_111" data-name="Path 111" d="M745.21,225.522a1.334,1.334,0,0,1,1.626.486,3.827,3.827,0,0,1,.565,1.751c.2,1.362.357,2.92-.561,3.931a12.8,12.8,0,0,1,10.56-8.53" transform="translate(-489.787 -164.136)" fill="none" stroke="#6c63ff" stroke-miterlimit="10" stroke-width="3" opacity="0.1"/>
    <path id="Path_112" data-name="Path 112" d="M696.753,545.436v-8.684l4,4,1-1.036L696.038,534l-5.718,5.718,1,1,4-3.963v8.684Z" transform="translate(-454.513 -363.892)" fill="#6c63ff" opacity="0.1"/>
    <path id="Path_113" data-name="Path 113" d="M454.753,625.436v-8.684l4,4,1-1.036L454.038,614l-5.718,5.718,1,1,4-3.963v8.684Z" transform="translate(-298.996 -415.303)" fill="#6c63ff" opacity="0.1"/>
    <path id="Path_114" data-name="Path 114" d="M632.753,696.436v-8.684l4,4,1-1.036L632.038,685l-5.718,5.718,1,1,4-3.963v8.684Z" transform="translate(-413.385 -460.93)" fill="#6c63ff" opacity="0.1"/>
  </g>
</svg>
