<svg xmlns="http://www.w3.org/2000/svg" width="633.572" height="580.064" viewBox="0 0 633.572 580.064">
  <g id="Group_6" data-name="Group 6" transform="translate(0.001 0)">
    <path id="Path_11" data-name="Path 11" d="M722.712,677.726l6.088,13.651c-4.949-.788-9.551,3.439-9.654,8.866s4.311,11.075,9.26,11.846c-.946,4.214-5.028,6.072-8.57,7.775s-7.362,4.528-7.1,9.018c.212,3.605,3.193,6.789,6.359,8.068s6.488,1.083,9.695.868c-4.859,5.083-5.333,14.637-1.065,21.491s12.79,10.229,19.171,7.59c-4.509,5.609-3.529,15.88,2.066,21.668,5.641,5.835,13.816,6.4,20.962,5.785A92.842,92.842,0,0,0,819.777,774.6c5.463-4.341,10.567-9.447,13.683-16.107a29.476,29.476,0,0,0,1.132-22.671c.783,9.494,10.286,16.992,18.834,17.412s16.012-4.4,22.355-9.886c8.435-7.3,16.244-17.537,15.087-30.166-.573-6.252-3.3-12.265-5.982-18.089L879.693,683.8c-2.1-4.558-4.24-9.194-7.395-13.019s-7.534-6.787-11.917-6.758c1-4.578,2.008-9.326,1.169-14.19s-4.055-9.9-8.428-11.039c-5.565-1.45-10.282,3.686-15.878,3.2-5.385-.466-9.836-5.871-15.066-8.012a12.06,12.06,0,0,0-13.015,2.251c-3.315,3.236-4.7,8.7-3.508,13.878,1.042,4.532,3.816,8.53,5.5,12.9s1.945,9.991-1.288,12.379c-3.9,2.881-9.839-1.039-12.887-5.782s-4.8-10.484-8.652-14.473c-4.549-4.707-11.67-5.81-16.353-2.533s-6.475,10.615-4.114,16.853c1.931,5.1,6.353,10.26,4.819,15.063-1.621,5.076-8.715,4.433-12.994.846s-7.12-8.991-11.347-12.659c-4.292-3.725-9.9-5.357-14.819-4.315a15.257,15.257,0,0,0-10.934,9.769" transform="translate(-316.797 -214.485)" fill="#e6e6e6"/>
    <path id="Path_12" data-name="Path 12" d="M856.658,632.873l-12.632,5.869a9.7,9.7,0,0,1-6.132.827,4.18,4.18,0,0,1-3.4-3.077l-2.939-13.729c-.555-2.59,1.59-5.654,5.1-7.285l6.976-3.241c3.51-1.631,7.235-1.294,8.856.8l8.6,11.1a4.18,4.18,0,0,1,.16,4.582A9.7,9.7,0,0,1,856.658,632.873Z" transform="translate(-352.174 -207.995)" fill="#3f3d56"/>
    <path id="Path_13" data-name="Path 13" d="M302.878,208.037a248.535,248.535,0,0,1,54.413-87.1c20.365-21.141,52.059-20.262,52.059-20.262l.181-.225a61.488,61.488,0,0,1,64.98-20.3c3.022.867,5.346,1.252,6.452.865,20.155-7.054,19.208-22.975,36.6-35.8C548.006,22.76,649,48.485,663.237,89.809c11.542,33.493,63.061,49.726,82.309,75.345q4.515,6.009,8.859,12.157,2.037,2.856,4.028,5.756a512.811,512.811,0,0,1,36.612,61.892,360.965,360.965,0,0,1,18.325,43.307c20.073,58.681,13.209,102.4-42.14,91.6q-9.828-1.923-19.184-3.441-13.547-2.211-26.15-3.634-16.971-1.93-32.291-2.529-5.151-.207-10.114-.278c-48.914-.678-85.2,8.528-112.838,22.819q-7.028,3.625-13.321,7.669a165.726,165.726,0,0,0-18.31,13.564,178.957,178.957,0,0,0-22.061,22.6l-.367.449c-32.33,39.545-42.969,83.324-65.458,91.033C355,561.08,294.2,441.613,287.968,324.749q-.472-8.833-.522-17.616-.029-3.926.039-7.831c.1-6.792.4-13.539.9-20.206q.281-3.823.652-7.606c.272-2.719.569-5.423.911-8.109A251.45,251.45,0,0,1,302.878,208.037Z" transform="translate(-190.096 -36.897)" fill="#f90"/>
    <path id="Path_14" data-name="Path 14" d="M730.958,371.927c-7.677,3.574-7.8,19.585-5.4,24.772l4.363,9.39,27.809-12.92-4.363-9.39C750.958,378.593,738.641,368.365,730.958,371.927Z" transform="translate(-320.21 -136.489)" fill="#3f3d56"/>
    <path id="Path_15" data-name="Path 15" d="M626.1,533.361a3.041,3.041,0,0,1-1.282-5.8l143.613-66.724A3.04,3.04,0,1,1,771,466.351h0L627.381,533.076A3.023,3.023,0,0,1,626.1,533.361Z" transform="translate(-290.085 -163.112)" fill="#3f3d56"/>
    <rect id="Rectangle_22" data-name="Rectangle 22" width="45.266" height="152.829" transform="translate(407.307 281.74) rotate(-24.92)" fill="#e6e6e6"/>
    <path id="Path_16" data-name="Path 16" d="M565.029,162.2c-7.677,3.574-7.8,19.585-5.4,24.772l4.363,9.39,27.809-12.92-4.363-9.39C585.029,168.867,572.712,158.639,565.029,162.2Z" transform="translate(-270.777 -74.008)" fill="#3f3d56"/>
    <path id="Path_17" data-name="Path 17" d="M802.23,655.568,789.6,661.437a9.7,9.7,0,0,1-6.132.827,4.18,4.18,0,0,1-3.4-3.077l-2.939-13.729c-.555-2.59,1.59-5.654,5.1-7.285l6.976-3.241c3.51-1.631,7.235-1.294,8.856.8l8.6,11.1a4.18,4.18,0,0,1,.16,4.582A9.7,9.7,0,0,1,802.23,655.568Z" transform="translate(-335.959 -214.756)" fill="#3f3d56"/>
    <path id="Path_18" data-name="Path 18" d="M746.912,683.013l-12.633,5.869a9.7,9.7,0,0,1-6.132.827,4.18,4.18,0,0,1-3.4-3.077L721.809,672.9c-.555-2.59,1.59-5.654,5.1-7.285l6.976-3.241c3.51-1.631,7.235-1.294,8.856.8l8.6,11.1a4.18,4.18,0,0,1,.16,4.582A9.7,9.7,0,0,1,746.912,683.013Z" transform="translate(-319.478 -222.933)" fill="#3f3d56"/>
    <rect id="Rectangle_23" data-name="Rectangle 23" width="45.266" height="308.927" transform="translate(301.765 158.071) rotate(-24.92)" fill="#e6e6e6"/>
    <path id="Path_19" data-name="Path 19" d="M547,398.871l-4.606-10.136,2.652-1.223,4.592,10.1,66.5,147.441-2.649,1.231" transform="translate(-161.589 -115.447)" fill="#3f3d56"/>
    <path id="Path_20" data-name="Path 20" d="M621,386.871l-4.606-10.136,2.652-1.223,4.592,10.1,66.5,147.441-2.649,1.231" transform="translate(-183.635 -111.872)" fill="#3f3d56"/>
    <path id="Path_21" data-name="Path 21" d="M635.289,248.946l-55.623,25.843c-3.541-5.509-14.217-33.742-11.82-42.119l-1.8-7.988,38.406-17.844,5.141,6.324C617.225,215.5,632.081,242.021,635.289,248.946Z" transform="translate(-273.1 -87.526)" fill="#e6e6e6"/>
    <path id="Path_22" data-name="Path 22" d="M603.818,198.991l-39.633,18.414c-1.463.68-3.021.43-3.48-.558a1.371,1.371,0,0,1-.121-.451l-2.051-21.882a2.926,2.926,0,0,1,1.939-2.568l26.284-12.212a2.926,2.926,0,0,1,3.213.175l15.4,15.68c.788.8.36,2.175-.955,3.066a4.268,4.268,0,0,1-.6.337Z" transform="translate(-270.859 -79.337)" fill="#e6e6e6"/>
    <path id="Path_23" data-name="Path 23" d="M655.189,418.56a5.354,5.354,0,0,1-1.274-.15,3.935,3.935,0,0,1-2.736-2.124l-24.23-52.152c-1-2.159.344-4.92,3-6.155l35.48-16.485c2.658-1.235,5.636-.483,6.639,1.676L696.3,395.322a3.933,3.933,0,0,1-.141,3.46,5.972,5.972,0,0,1-2.86,2.695l-35.48,16.484A6.263,6.263,0,0,1,655.189,418.56Z" transform="translate(-291.145 -127.465)" fill="#3f3d56"/>
    <rect id="Rectangle_24" data-name="Rectangle 24" width="45.266" height="152.829" transform="translate(327.849 318.062) rotate(-24.92)" fill="#e6e6e6"/>
    <path id="Path_24" data-name="Path 24" d="M593.765,205.385l-12.039,5.593c-2.323,1.079-5.457-.719-6.985-4.009s-.882-6.845,1.441-7.924l12.039-5.593c2.323-1.079,5.457.719,6.986,4.009S596.088,204.305,593.765,205.385Z" transform="translate(-275.443 -83.444)" fill="#3f3d56"/>
    <path id="Path_25" data-name="Path 25" d="M618.923,423.131c-7.677,3.574-7.8,19.585-5.4,24.772l4.363,9.39,27.809-12.92-4.363-9.39C638.923,429.8,626.606,419.569,618.923,423.131Z" transform="translate(-286.833 -151.744)" fill="#3f3d56"/>
    <path id="Path_26" data-name="Path 26" d="M438.511,375.95c-2.711,1.807-5.487-2.493-2.723-4.22C438.5,369.924,441.275,374.224,438.511,375.95Z" transform="translate(-233.952 -136.521)" fill="#e6e6e6"/>
    <path id="Path_27" data-name="Path 27" d="M840.511,287.95c-2.711,1.807-5.487-2.493-2.723-4.22C840.5,281.924,843.275,286.224,840.511,287.95Z" transform="translate(-353.716 -110.304)" fill="#e6e6e6"/>
    <path id="Path_28" data-name="Path 28" d="M566.511,357.95c-2.711,1.807-5.487-2.493-2.723-4.22C566.5,351.924,569.275,356.224,566.511,357.95Z" transform="translate(-272.086 -131.158)" fill="#e6e6e6"/>
    <path id="Path_29" data-name="Path 29" d="M438.511,597.95c-2.711,1.807-5.487-2.493-2.723-4.22C438.5,591.924,441.275,596.224,438.511,597.95Z" transform="translate(-233.952 -202.659)" fill="#e6e6e6"/>
    <path id="Path_30" data-name="Path 30" d="M635.511,96.95c-2.711,1.807-5.487-2.493-2.723-4.22C635.5,90.924,638.275,95.224,635.511,96.95Z" transform="translate(-292.642 -53.401)" fill="#e6e6e6"/>
    <path id="Path_31" data-name="Path 31" d="M445.511,214.95c-2.711,1.807-5.487-2.493-2.723-4.22C445.5,208.924,448.275,213.224,445.511,214.95Z" transform="translate(-236.038 -88.556)" fill="#e6e6e6"/>
    <path id="Path_32" data-name="Path 32" d="M569.58,145.2l-1.725-.378.378-1.726-1.15-.252-.378,1.726-1.725-.378-.252,1.15,1.725.378-.378,1.725,1.15.252.378-1.726,1.725.378Z" transform="translate(-168.243 -42.556)" fill="#e6e6e6"/>
    <path id="Path_33" data-name="Path 33" d="M169.482,349.978l-1.725-.378.378-1.725-1.15-.252-.378,1.725-1.726-.378-.252,1.15,1.726.378-.378,1.726,1.15.251.378-1.725,1.725.378Z" transform="translate(-49.046 -103.564)" fill="#e6e6e6"/>
    <path id="Path_34" data-name="Path 34" d="M817.607,481.019a5.975,5.975,0,0,1-7.927-2.9l-7.1-15.281a5.968,5.968,0,0,1,10.824-5.029l7.1,15.281A5.975,5.975,0,0,1,817.607,481.019Z" transform="translate(-343.402 -161.266)" fill="#3f3d56"/>
    <path id="Path_35" data-name="Path 35" d="M645.607,561.019a5.975,5.975,0,0,1-7.927-2.9l-7.1-15.281a5.968,5.968,0,0,1,10.824-5.029l7.1,15.281A5.975,5.975,0,0,1,645.607,561.019Z" transform="translate(-292.16 -185.099)" fill="#3f3d56"/>
    <path id="Path_36" data-name="Path 36" d="M784.023,429.546l-47.605,22.118c-3.031-4.715-12.168-28.878-10.116-36.048l1.007-8.02,28.424-13.945,6.3,5.269C770.906,395.92,783.95,417.911,784.023,429.546Z" transform="translate(-320.754 -143.181)" fill="#e6e6e6"/>
    <path id="Path_37" data-name="Path 37" d="M768.13,435.8l-12.039,5.593c-2.323,1.079-5.858-1.582-7.878-5.931s-1.775-8.767.548-9.846l12.038-5.593c2.323-1.079,5.858,1.582,7.879,5.931S770.453,434.718,768.13,435.8Z" transform="translate(-326.963 -150.965)" fill="#3f3d56"/>
    <path id="Path_38" data-name="Path 38" d="M481,441.871l-4.606-10.136,2.652-1.223,4.592,10.1,66.5,147.441-2.649,1.231" transform="translate(-141.926 -128.258)" fill="#3f3d56"/>
    <path id="Path_39" data-name="Path 39" d="M671,480.749l-47.605,22.118c-7.023-3.626-17.756-27.354-10.116-36.048l1.007-8.02,28.424-13.945,6.3,5.269C655.537,452.128,668.252,474.824,671,480.749Z" transform="translate(-286.386 -158.435)" fill="#e6e6e6"/>
    <path id="Path_40" data-name="Path 40" d="M655.038,484.876,643,490.47c-2.323,1.079-5.638-1.108-7.389-4.876s-1.285-7.712,1.038-8.792l12.038-5.593c2.323-1.079,5.638,1.108,7.389,4.876S657.362,483.8,655.038,484.876Z" transform="translate(-293.508 -166.204)" fill="#3f3d56"/>
    <circle id="Ellipse_4" data-name="Ellipse 4" cx="72.314" cy="72.314" r="72.314" transform="translate(47.946 71.503)" fill="#ffe5bf"/>
    <path id="Path_41" data-name="Path 41" d="M740.345,294.559l43.945-128.347-48.255,126.81a2.416,2.416,0,1,0,4.309,1.536Z" transform="translate(-323.587 -75.422)" fill="#f0f0f0" opacity="0.3"/>
    <path id="Path_42" data-name="Path 42" d="M677.569,212.211q-12.9,4.289-28.611,8.426C594.8,234.9,522.2,246.02,444.536,251.958s-151.107,5.981-206.808.122c-27.133-2.855-48.595-6.96-63.787-12.2-16.084-5.55-24.536-12.239-25.12-19.878-1.138-14.884,28.232-27.984,53.072-36.352l.673,2c-34.11,11.492-52.451,23.636-51.643,34.2,1.028,13.449,32.748,24.437,87.026,30.147,55.578,5.846,128.889,5.8,206.427-.127s150-17.031,204.046-31.259c52.778-13.895,82.459-29.578,81.432-43.027-.854-11.166-22.865-20.719-61.978-26.9l.329-2.08c28.42,4.49,62.55,13.135,63.75,28.818.584,7.64-6.752,15.535-21.806,23.466A220.028,220.028,0,0,1,677.569,212.211Z" transform="translate(-148.791 -69.577)" fill="#3f3d56"/>
    <circle id="Ellipse_5" data-name="Ellipse 5" cx="7.514" cy="7.514" r="7.514" transform="translate(542.514 255.862)" fill="#ff6584"/>
    <circle id="Ellipse_6" data-name="Ellipse 6" cx="7.514" cy="7.514" r="7.514" transform="translate(590.255 459.465)" fill="#f2f2f2"/>
    <circle id="Ellipse_7" data-name="Ellipse 7" cx="14.65" cy="14.65" r="14.65" transform="translate(326.86 490.944)" fill="#f2f2f2"/>
    <circle id="Ellipse_8" data-name="Ellipse 8" cx="7.514" cy="7.514" r="7.514" transform="translate(222.365 311.326)" fill="#3f3d56"/>
    <path id="Path_43" data-name="Path 43" d="M687.226,478.768l32.419,8.392,19.884,39.055-33.616,1.318Z" transform="translate(-204.738 -142.634)" fill="#e6e6e6"/>
    <path id="Path_44" data-name="Path 44" d="M580.645,398.574l17.843,17.853L643.8,514.405l-8.344,7.208Z" transform="translate(-172.986 -118.743)" fill="#ccc"/>
    <path id="Path_45" data-name="Path 45" d="M525.386,421.624l1.4,25.2,42.774,99.116,10.936-1.408Z" transform="translate(-156.523 -125.61)" fill="#ccc"/>
    <path id="Path_46" data-name="Path 46" d="M516.314,566.637l-17.46,28.576,12.871,41.893L536.8,614.676Z" transform="translate(-148.618 -168.812)" fill="#e6e6e6"/>
    <path id="Path_47" data-name="Path 47" d="M678.1,553.383q-13.6,0-29.808-1.028c-55.9-3.549-128.3-15.89-203.867-34.747S299.138,475.628,248.129,452.5c-24.848-11.266-43.919-21.93-56.683-31.7-13.513-10.34-19.424-19.352-17.569-26.786,3.614-14.483,35.617-17.652,61.828-17.759l.009,2.106c-35.994.148-57.229,5.888-59.793,16.163-3.266,13.087,23.37,33.518,73.077,56.055,50.9,23.076,120.481,46.154,195.932,64.982s147.718,31.147,203.491,34.689c54.466,3.46,87.58-2.062,90.846-15.15,2.711-10.866-15.164-26.872-50.332-45.072l.968-1.87c25.554,13.224,55.216,32.192,51.408,47.453-1.856,7.434-11.307,12.613-28.094,15.391A220,220,0,0,1,678.1,553.383Z" transform="translate(-156.166 -137.999)" fill="#3f3d56"/>
  </g>
</svg>
